# Blender v2.79 (sub 0) OBJ File: 'bucketwater.blend'
# www.blender.org
o Cylinder
v 0.000000 0.000000 -0.360113
v -0.254640 0.000000 -0.254640
v -0.360113 0.000000 0.000000
v -0.254640 0.000000 0.254640
v 0.000000 0.000000 0.360113
v 0.254640 0.000000 0.254640
v 0.360113 0.000000 -0.000000
v 0.254640 0.000000 -0.254640
vt 0.250000 0.406250
vt 0.593750 0.250000
vt 0.750000 0.593750
vt 0.593750 0.750000
vt 0.406250 0.750000
vt 0.250000 0.593750
vt 0.406250 0.250000
vt 0.750000 0.406250
vn 0.0000 -1.0000 0.0000
s 1
f 7/1/1 5/2/1 3/3/1
f 3/3/1 2/4/1 1/5/1
f 1/5/1 8/6/1 7/1/1
f 7/1/1 6/7/1 5/2/1
f 5/2/1 4/8/1 3/3/1
f 3/3/1 1/5/1 7/1/1
