# Blender v2.79 (sub 0) OBJ File: ''
# www.blender.org
mtllib cube.mtl
o Cube_Cube.001
v 0.500000 0.000000 0.500000
v -0.500000 -1.000000 0.500000
v 0.500000 -1.000000 0.500000
v -0.500000 -0.000000 0.500000
v -0.500000 -1.000000 -0.500000
v -0.500000 -0.000000 -0.500000
v 0.500000 -1.000000 -0.500000
v 0.500000 0.000000 -0.500000
vt 0.000000 0.333333
vt 0.333333 0.000000
vt 0.333333 0.333333
vt 1.000000 0.000000
vt 0.666667 0.333333
vt 0.666667 0.000000
vt 0.666667 0.666667
vt 0.333333 0.333333
vt 0.333333 1.000000
vt 0.000000 0.666667
vt 0.333333 0.666667
vt 0.666667 0.000000
vt 0.000000 0.666667
vt 0.333333 0.333333
vt 0.333333 0.666667
vt 0.000000 0.000000
vt 1.000000 0.333333
vt 0.333333 0.666667
vt 0.000000 1.000000
vt 0.666667 0.333333
vn -0.0000 0.0000 1.0000
vn -1.0000 -0.0000 0.0000
vn -0.0000 0.0000 -1.0000
vn 1.0000 0.0000 0.0000
vn 0.0000 -1.0000 0.0000
vn -0.0000 1.0000 0.0000
usemtl None
s 1
f 1/1/1 2/2/1 3/3/1
f 4/4/2 5/5/2 2/6/2
f 6/7/3 7/8/3 5/5/3
f 8/9/4 3/10/4 7/11/4
f 5/12/5 3/3/5 2/2/5
f 4/13/6 8/14/6 6/15/6
f 1/1/1 4/16/1 2/2/1
f 4/4/2 6/17/2 5/5/2
f 6/7/3 8/18/3 7/8/3
f 8/9/4 1/19/4 3/10/4
f 5/12/5 7/20/5 3/3/5
f 4/13/6 1/1/6 8/14/6
