# Blender v2.79 (sub 0) OBJ File: 'drip.blend'
# www.blender.org
mtllib drip.mtl
o Plane
v 0.100000 -0.200000 -0.000000
v 0.100000 0.200000 0.000000
v -0.100000 -0.200000 -0.000000
v -0.100000 0.200000 0.000000
v 0.100000 -0.200000 -0.000000
v 0.100000 0.200000 0.000000
v -0.100000 -0.200000 -0.000000
v -0.100000 0.200000 0.000000
vt 1.000000 1.000000
vt 0.000000 0.000000
vt 1.000000 0.000000
vt 0.000000 1.000000
vt 1.000000 1.000000
vt 1.000000 0.000000
vt 0.000000 0.000000
vt 0.000000 1.000000
vn 0.0000 -0.0000 1.0000
vn -0.0000 0.0000 -1.0000
usemtl Material.001
s off
f 2/1/1 3/2/1 1/3/1
f 2/1/1 4/4/1 3/2/1
f 6/5/2 5/6/2 7/7/2
f 6/5/2 7/7/2 8/8/2
