# Blender v2.79 (sub 0) OBJ File: 'basket.blend'
# www.blender.org
o Basket_COL
v -0.400000 0.000000 0.400000
v 0.400000 -0.000000 -0.400000
v -0.400000 -0.000000 -0.400000
v 0.400000 0.000000 0.400000
vt 0.393750 -0.000000
vt 0.193750 -0.000000
vt 0.193750 1.000000
vt 0.393750 1.000000
vn -0.0000 -1.0000 0.0000
s 1
f 1/1/1 3/2/1 2/3/1 4/4/1
o Basket
v -0.378000 0.001154 0.378000
v 0.378000 0.001154 -0.378000
v -0.378000 0.001154 -0.378000
v 0.453600 -0.849346 -0.453600
v -0.453600 -0.849346 0.453600
v -0.453600 -0.849346 -0.453600
v 0.378000 0.001154 0.378000
v 0.453600 -0.849346 0.453600
v -0.309233 -0.050316 0.309233
v 0.309233 -0.050316 -0.309233
v -0.309233 -0.050316 -0.309233
v 0.373581 -0.853669 -0.373581
v -0.373581 -0.853669 0.373581
v -0.373581 -0.853669 -0.373581
v 0.309233 -0.050316 0.309233
v 0.373581 -0.853669 0.373581
v -0.407466 -0.010500 0.407465
v 0.407466 -0.010500 -0.407465
v -0.407465 -0.010500 -0.407466
v 0.478969 -0.871182 -0.478969
v -0.478969 -0.871181 0.478969
v -0.478969 -0.871182 -0.478969
v 0.407465 -0.010500 0.407466
v 0.478969 -0.871181 0.478969
v -0.285911 -0.076318 0.285911
v 0.285911 -0.076319 -0.285911
v -0.285911 -0.076319 -0.285911
v 0.362815 -0.892812 -0.362815
v -0.362815 -0.892812 0.362815
v -0.362815 -0.892812 -0.362815
v 0.285911 -0.076318 0.285911
v 0.362815 -0.892812 0.362815
vt 0.281250 1.000000
vt 0.142857 0.000000
vt 0.281250 0.000000
vt 0.000000 1.000000
vt 0.138393 -0.000000
vt 0.138393 1.000000
vt 0.281250 0.000000
vt 0.142857 1.000000
vt 0.142857 0.000000
vt 0.138393 -0.000000
vt 0.000000 1.000000
vt 0.000000 -0.000000
vt 0.549107 1.000000
vt 0.437500 0.000000
vt 0.437500 1.000000
vt 0.410714 0.000000
vt 0.299107 1.000000
vt 0.410714 1.000000
vt 0.549107 0.000000
vt 0.437500 1.000000
vt 0.549107 1.000000
vt 0.299107 1.000000
vt 0.410714 0.000000
vt 0.299107 0.000000
vt 0.714286 0.000000
vt 0.571429 1.000000
vt 0.714286 1.000000
vt 0.857143 0.750000
vt 0.727679 1.000000
vt 0.714286 0.750000
vt 0.857143 0.750000
vt 0.727679 1.000000
vt 0.714286 0.750000
vt 0.857143 0.250000
vt 0.727679 0.500000
vt 0.714286 0.250000
vt 0.714286 0.250000
vt 0.843750 0.500000
vt 0.727679 0.500000
vt 0.995536 1.000000
vt 0.857143 0.000000
vt 0.857143 1.000000
vt 0.995536 0.000000
vt 0.857143 1.000000
vt 0.995536 1.000000
vt 0.995536 0.000000
vt 0.857143 1.000000
vt 0.995536 1.000000
vt 0.857143 1.000000
vt 0.995536 0.000000
vt 0.857143 0.000000
vt 0.986607 1.000000
vt 0.866071 0.000000
vt 0.986607 0.000000
vt 0.866071 1.000000
vt 0.986607 0.000000
vt 0.986607 1.000000
vt 0.986607 0.000000
vt 0.866071 1.000000
vt 0.866071 0.000000
vt 0.986607 0.000000
vt 0.866071 1.000000
vt 0.866071 0.000000
vt 0.857143 1.000000
vt 1.000000 1.000000
vt 0.857143 1.000000
vt 1.000000 1.000000
vt 0.857143 1.000000
vt 1.000000 1.000000
vt 1.000000 1.000000
vt 1.000000 1.000000
vt 0.995536 0.000000
vt 0.857143 0.000000
vt 0.142857 1.000000
vt 0.000000 -0.000000
vt 0.281250 1.000000
vt 0.138393 1.000000
vt 0.549107 0.000000
vt 0.299107 0.000000
vt 0.437500 0.000000
vt 0.410714 1.000000
vt 0.571429 0.000000
vt 0.843750 1.000000
vt 0.843750 1.000000
vt 0.843750 0.500000
vt 0.857143 0.250000
vt 0.857143 0.000000
vt 0.995536 1.000000
vt 0.866071 1.000000
vt 0.866071 0.000000
vt 0.986607 1.000000
vt 0.986607 1.000000
vt 1.000000 1.000000
vt 1.000000 1.000000
vt 1.000000 1.000000
vt 0.857143 1.000000
vn -0.9961 0.0885 -0.0000
vn -0.0000 0.0885 0.9961
vn 0.9961 0.0885 0.0000
vn 0.0000 0.0885 -0.9961
vn 0.9968 -0.0798 0.0000
vn 0.0000 -0.0798 -0.9968
vn -0.9968 -0.0798 -0.0000
vn -0.0000 -0.0798 0.9968
vn -0.0000 -1.0000 0.0000
vn 0.0270 -0.9993 -0.0270
vn -0.0270 -0.9993 -0.0270
vn -0.0270 -0.9993 0.0270
vn 0.0270 -0.9993 0.0270
vn 0.9966 -0.0828 0.0000
vn 0.0000 -0.0828 -0.9966
vn -0.9966 -0.0828 -0.0000
vn -0.0000 -0.0828 0.9966
vn -0.9956 0.0938 -0.0000
vn -0.0000 0.0938 0.9956
vn 0.9956 0.0938 0.0000
vn 0.0000 0.0938 -0.9956
vn 0.0923 0.9914 0.0923
vn -0.0923 0.9914 0.0923
vn -0.0923 0.9914 -0.0923
vn 0.0923 0.9914 -0.0923
s 1
f 10/5/2 5/6/2 7/7/2
f 12/8/3 5/9/3 9/10/3
f 11/11/4 8/12/4 6/13/4
f 6/14/5 10/15/5 7/16/5
f 18/17/6 13/18/6 17/19/6
f 13/20/7 20/21/7 17/22/7
f 19/23/8 16/24/8 20/25/8
f 18/26/9 14/27/9 15/28/9
f 19/29/10 15/30/10 14/31/10
f 8/32/11 18/33/12 10/34/12
f 9/35/13 20/36/14 12/37/14
f 12/38/14 16/39/11 8/40/11
f 9/41/13 18/42/12 17/43/13
f 26/44/15 21/45/15 25/46/15
f 21/47/16 28/48/16 25/49/16
f 27/50/17 24/51/17 28/52/17
f 26/53/18 22/54/18 23/55/18
f 34/56/19 29/57/19 31/58/19
f 36/59/20 29/60/20 33/61/20
f 35/62/21 32/63/21 30/64/21
f 30/65/22 34/66/22 31/67/22
f 34/68/23 24/69/24 26/53/23
f 36/70/25 25/71/26 28/48/25
f 32/72/24 28/73/25 24/51/24
f 25/46/26 34/74/23 26/75/23
f 27/50/10 23/76/10 22/77/10
f 10/5/2 9/78/2 5/6/2
f 12/8/3 11/79/3 5/9/3
f 11/11/4 12/80/4 8/12/4
f 6/14/5 8/81/5 10/15/5
f 18/17/6 15/82/6 13/18/6
f 13/20/7 19/83/7 20/21/7
f 19/23/8 14/84/8 16/24/8
f 18/26/9 16/85/9 14/27/9
f 19/29/10 13/86/10 15/30/10
f 8/32/11 16/87/11 18/33/12
f 9/35/13 17/88/13 20/36/14
f 12/38/14 20/89/14 16/39/11
f 9/41/13 10/90/12 18/42/12
f 26/44/15 23/76/15 21/45/15
f 21/47/16 27/91/16 28/48/16
f 27/50/17 22/77/17 24/51/17
f 26/53/18 24/92/18 22/54/18
f 34/56/19 33/93/19 29/57/19
f 36/59/20 35/94/20 29/60/20
f 35/62/21 36/95/21 32/63/21
f 30/65/22 32/96/22 34/66/22
f 34/68/23 32/97/24 24/69/24
f 36/70/25 33/98/26 25/71/26
f 32/72/24 36/99/25 28/73/25
f 25/46/26 33/100/26 34/74/23
f 27/50/10 21/47/10 23/76/10
