# Blender v2.79 (sub 0) OBJ File: 'couch.blend'
# www.blender.org
o Couch
v -1.450000 -0.750000 -0.225000
v -1.450000 -1.100000 -0.450000
v -1.450000 -1.100000 -0.225000
v -1.450000 -0.750000 0.450000
v -1.212500 -0.750000 0.450000
v -1.212500 -0.500000 0.450000
v 0.450000 -0.750000 -0.225000
v 0.450000 0.000000 0.450000
v 0.450000 -0.750000 0.450000
v -1.450000 0.000000 0.450000
v -1.450000 -0.000000 -0.450000
v -1.212500 -0.750000 -0.225000
v 0.212500 -0.500000 -0.225000
v -1.212500 -0.500000 -0.225000
v 0.450000 -1.100000 -0.225000
v 0.450000 -1.100000 -0.450000
v 0.212500 -0.750000 -0.225000
v 0.450000 -0.000000 -0.450000
v 0.212500 -0.500000 0.450000
v 0.212500 -0.750000 0.450000
v -1.480004 -0.779994 -0.195006
v -1.480000 -1.130000 -0.480000
v -1.480000 -1.130000 -0.195000
v -1.480000 -0.780000 0.480000
v -1.182500 -0.780000 0.480000
v -1.182500 -0.530000 0.480000
v 0.480004 -0.779994 -0.195005
v 0.480000 -0.010000 0.480000
v 0.480000 -0.780000 0.480000
v -1.480000 -0.010000 0.480000
v -1.480002 -0.010000 -0.479994
v -1.182500 -0.780000 -0.195000
v 0.182500 -0.530000 -0.195000
v -1.182500 -0.530000 -0.195000
v 0.480000 -1.130000 -0.195000
v 0.480000 -1.130000 -0.480000
v 0.182500 -0.780000 -0.195000
v 0.480002 -0.010000 -0.479994
v 0.182500 -0.530000 0.480000
v 0.182500 -0.780000 0.480000
vt 0.916667 0.583333
vt 1.000000 0.666667
vt 0.916667 0.666667
vt 0.666667 0.583333
vt 0.583333 0.583333
vt 0.583333 0.500000
vt 0.666667 0.333333
vt 1.000000 0.333333
vt -0.000000 0.333333
vt 0.916667 0.510417
vt 0.666667 0.583333
vt 0.666667 0.510417
vt 0.000000 0.916667
vt 0.083333 0.666667
vt 0.083333 0.916667
vt 0.583333 0.583333
vt 0.083333 0.510417
vt 0.583333 0.510417
vt 0.916667 0.583333
vt 1.000000 0.666667
vt 1.000000 0.333333
vt -0.000000 0.666667
vt 0.666667 0.666667
vt 0.583333 0.916667
vt 0.083333 0.666667
vt 0.583333 0.666667
vt 0.666667 0.916667
vt 0.000000 1.000000
vt -0.000000 0.916667
vt 0.083333 0.583333
vt -0.000000 0.583333
vt 0.083333 0.500000
vt 0.916667 0.666667
vt 0.666667 0.333333
vt 0.666667 0.583333
vt 0.666667 -0.000000
vt 0.000000 0.333333
vt 0.000000 -0.000000
vt -0.000000 0.583333
vt 0.083333 0.583333
vt 0.916667 0.510417
vt 0.666667 0.583333
vt 0.666667 0.510417
vt 0.666667 0.583333
vt 0.666667 0.916667
vt 0.583333 0.666667
vt 0.666667 0.666667
vt 0.875000 0.833333
vt 0.875000 0.843750
vt 0.885417 0.843750
vt 0.822917 0.833333
vt 0.812500 0.812500
vt 0.812500 0.833333
vt 0.822917 0.781250
vt 0.697917 0.781250
vt 0.822917 0.833333
vt 0.875000 0.812500
vt 0.822917 0.812500
vt 0.708333 0.812500
vt 0.812500 0.833333
vt 0.812500 0.812500
vt 0.875000 0.833333
vt 0.885417 0.781250
vt 0.885417 0.843750
vt 0.697917 0.843750
vt 0.822917 0.843750
vt 0.708333 0.833333
vt 0.708333 0.812500
vt 0.697917 0.833333
vt 0.885417 0.781250
vt 0.875000 0.843750
vt 0.822917 0.781250
vt 0.697917 0.781250
vt 0.822917 0.718750
vt 0.697917 0.718750
vt 0.708333 0.833333
vt 0.697917 0.833333
vt 0.875000 0.812500
vt 0.822917 0.833333
vt 0.875000 0.833333
vt 0.822917 0.833333
vt 0.916667 0.583333
vt 0.000000 0.666667
vt 0.083333 0.916667
vt 0.666667 1.000000
vt 0.666667 0.333333
vt 0.916667 0.583333
vt 0.583333 0.916667
vt 0.875000 0.833333
vt 0.822917 0.833333
vt 0.822917 0.781250
vt 0.822917 0.812500
vn -1.0000 0.0000 -0.0000
vn -0.0000 0.0000 1.0000
vn 1.0000 -0.0000 0.0000
vn -0.0000 -1.0000 0.0000
vn 0.0000 -0.0000 -1.0000
s 1
f 1/1/1 2/2/1 3/3/1
f 4/4/2 5/5/2 6/6/2
f 1/1/1 10/7/1 11/8/1
f 6/6/2 8/9/2 10/7/2
f 6/6/2 10/7/2 4/4/2
f 12/10/3 6/11/3 5/12/3
f 7/13/4 20/14/4 17/15/4
f 12/16/2 13/17/2 14/18/2
f 7/19/3 16/20/3 18/21/3
f 15/22/2 12/16/2 3/23/2
f 19/24/4 14/25/4 13/26/4
f 3/27/4 16/28/4 15/29/4
f 20/30/2 9/31/2 19/32/2
f 9/31/2 8/9/2 19/32/2
f 1/1/1 11/8/1 2/2/1
f 7/19/3 15/33/3 16/20/3
f 7/19/3 8/34/3 9/35/3
f 18/36/5 2/37/5 11/38/5
f 15/22/2 7/39/2 17/40/2
f 13/41/1 20/42/1 19/43/1
f 12/16/2 1/44/2 3/23/2
f 1/45/4 5/46/4 4/47/4
f 21/48/3 23/49/3 22/50/3
f 24/51/5 26/52/5 25/53/5
f 21/48/3 30/54/3 24/51/3
f 28/55/5 26/52/5 30/54/5
f 26/52/5 24/51/5 30/54/5
f 26/56/1 32/57/1 25/58/1
f 33/59/5 32/60/5 34/61/5
f 27/62/1 38/63/1 36/64/1
f 32/60/5 35/65/5 23/66/5
f 40/67/5 39/68/5 29/69/5
f 29/69/5 39/68/5 28/55/5
f 21/48/3 22/50/3 31/70/3
f 27/62/1 36/64/1 35/71/1
f 27/62/1 28/72/1 38/63/1
f 22/73/2 38/74/2 31/75/2
f 35/65/5 37/76/5 27/77/5
f 33/78/3 40/79/3 37/80/3
f 32/60/5 23/66/5 21/81/5
f 28/55/4 31/75/4 38/74/4
f 1/1/1 4/4/1 10/7/1
f 6/6/2 19/32/2 8/9/2
f 12/10/3 14/82/3 6/11/3
f 7/13/4 9/83/4 20/14/4
f 12/16/2 17/40/2 13/17/2
f 15/22/2 17/40/2 12/16/2
f 19/24/4 6/84/4 14/25/4
f 3/27/4 2/85/4 16/28/4
f 7/19/3 18/21/3 8/34/3
f 18/36/5 16/86/5 2/37/5
f 13/41/1 17/87/1 20/42/1
f 1/45/4 12/88/4 5/46/4
f 21/48/3 31/70/3 30/54/3
f 28/55/5 39/68/5 26/52/5
f 26/56/1 34/89/1 32/57/1
f 33/59/5 37/76/5 32/60/5
f 32/60/5 37/76/5 35/65/5
f 27/62/1 29/90/1 28/72/1
f 22/73/2 36/91/2 38/74/2
f 33/78/3 39/92/3 40/79/3
f 28/55/4 30/54/4 31/75/4
o Couch_COL
v -1.475000 0.000000 0.475000
v 0.475000 -0.000000 -0.475000
v 0.475000 0.000000 0.475000
v -1.475000 -0.000000 -0.475000
vt 0.000000 0.000000
vt 0.000000 0.000000
vt 0.000000 0.000000
vt 0.000000 0.000000
vn -0.0000 -1.0000 0.0000
s 1
f 42/93/6 43/94/6 41/95/6 44/96/6
