# Blender v2.79 (sub 0) OBJ File: 'door.blend'
# www.blender.org
o Door
v 1.000000 0.000000 0.000000
v 1.000000 -2.000000 0.000000
v 1.000000 0.000000 -0.100000
v 1.000000 -2.000000 -0.100000
v 0.000000 0.000000 0.000000
v 0.000000 -2.000000 0.000000
v 0.000000 0.000000 -0.100000
v 0.000000 -2.000000 -0.100000
v 0.890000 -1.075000 -0.150000
v 0.965000 -1.000000 -0.150000
v 0.890000 -0.925000 -0.150000
v 0.815000 -1.000000 -0.150000
v 0.965000 -1.000000 0.050000
v 0.890000 -1.075000 0.050000
v 0.890000 -0.925000 0.050000
v 0.815000 -1.000000 0.050000
vt 0.401620 0.995058
vt 0.441618 -0.004902
vt 0.441618 0.995058
vt 0.000063 0.999937
vt 0.400013 0.000063
vt 0.400013 0.999937
vt 0.000000 0.968750
vt 0.400000 1.000000
vt 0.000000 1.000000
vt 0.850000 1.000000
vt 0.900000 -0.000000
vt 0.900000 1.000000
vt 0.450000 1.000000
vt 0.850000 -0.000000
vt 0.401620 -0.004902
vt 0.000063 0.000063
vt 0.400000 0.968750
vt 0.450000 -0.000000
vt 0.950000 0.828125
vt 0.950000 0.828125
vt 0.950000 0.828125
vt 0.950000 0.828125
vt 0.950000 0.828125
vt 0.950000 0.828125
vt 0.950000 0.828125
vt 0.950000 0.828125
vn -1.0000 0.0000 0.0000
vn 0.0000 0.0000 1.0000
vn 0.0000 -1.0000 0.0000
vn 1.0000 0.0000 0.0000
vn 0.0000 0.0000 -1.0000
vn 0.0000 0.8165 0.5773
vn 0.0000 -0.8165 0.5773
vn 0.8165 0.0000 0.5773
vn 0.0000 -0.8165 -0.5773
vn -0.8165 0.0000 0.5773
vn -0.8165 0.0000 -0.5773
vn 0.8165 0.0000 -0.5773
vn 0.0000 0.8165 -0.5773
s off
f 6/1/1 7/2/1 8/3/1
f 2/4/2 5/5/2 6/6/2
f 2/7/3 8/8/3 4/9/3
f 4/10/4 1/11/4 2/12/4
f 8/13/5 3/14/5 4/10/5
f 6/1/1 5/15/1 7/2/1
f 2/4/2 1/16/2 5/5/2
f 2/7/3 6/17/3 8/8/3
f 4/10/4 3/14/4 1/11/4
f 8/13/5 7/18/5 3/14/5
s 1
f 15/19/6 14/20/7 13/21/8
f 9/22/9 16/23/10 12/24/11
f 10/25/12 15/19/6 13/21/8
f 12/24/11 15/19/6 11/26/13
f 10/25/12 14/20/7 9/22/9
f 10/25/12 12/24/11 11/26/13
f 15/19/6 16/23/10 14/20/7
f 9/22/9 14/20/7 16/23/10
f 10/25/12 11/26/13 15/19/6
f 12/24/11 16/23/10 15/19/6
f 10/25/12 13/21/8 14/20/7
f 10/25/12 9/22/9 12/24/11
o Door_COL
v -0.000000 0.000000 -0.000000
v 0.950000 -0.000000 -0.100000
v 0.000000 -0.000000 -0.100000
v 0.950000 0.000000 0.000000
vt 0.393750 -0.000000
vt 0.193750 -0.000000
vt 0.193750 1.000000
vt 0.393750 1.000000
vn -0.0000 -1.0000 0.0000
s 1
f 17/27/14 19/28/14 18/29/14 20/30/14
